<?xml version="1.0" encoding="UTF-8" standalone="no"?>
<svg
   xmlns:dc="http://purl.org/dc/elements/1.1/"
   xmlns:cc="http://creativecommons.org/ns#"
   xmlns:rdf="http://www.w3.org/1999/02/22-rdf-syntax-ns#"
   xmlns:svg="http://www.w3.org/2000/svg"
   xmlns="http://www.w3.org/2000/svg"
   viewBox="0 0 334.25333 64.613335"
   height="64.613335"
   width="334.25333"
   xml:space="preserve"
   id="svg2"
   version="1.1"><metadata
     id="metadata8"><rdf:RDF><cc:Work
         rdf:about=""><dc:format>image/svg+xml</dc:format><dc:type
           rdf:resource="http://purl.org/dc/dcmitype/StillImage" /></cc:Work></rdf:RDF></metadata><defs
     id="defs6"><clipPath
       id="clipPath20"
       clipPathUnits="userSpaceOnUse"><path
         id="path18"
         d="M 0,484.574 V 0 h 2506.87 v 484.574 z" /></clipPath></defs><g
     transform="matrix(1.3333333,0,0,-1.3333333,0,64.613333)"
     id="g10"><g
       transform="scale(0.1)"
       id="g12"><g
         id="g14"><g
           clip-path="url(#clipPath20)"
           id="g16"><path
             id="path22"
             style="fill:#ffffff;fill-opacity:1;fill-rule:nonzero;stroke:none"
             d="m 868.285,155.719 c 0,-40.696 -1.347,-59.0042 -11.527,-77.9963 C 837.09,38.3945 784.199,1.78125 690.625,1.78125 616.02,1.78125 564.492,22.1133 536.004,60.7773 518.379,86.5391 512.949,98.0703 512.949,161.141 V 482.562 H 635.016 V 174.02 c 0,-43.399 13.562,-72.559 56.277,-72.559 43.402,0 55.609,24.414 55.609,70.527 V 482.562 H 868.285 V 155.719" /><path
             id="path24"
             style="fill:#ffffff;fill-opacity:1;fill-rule:nonzero;stroke:none"
             d="M 1132.08,9.91797 V 208.609 H 1035.1 V 9.91797 H 913.727 V 482.574 H 1035.1 V 308.973 h 96.98 v 173.601 h 121.39 V 9.91797 h -121.39" /><path
             id="path26"
             style="fill:#ffffff;fill-opacity:1;fill-rule:nonzero;stroke:none"
             d="M 1528.1,9.91797 1444.69,174.02 c -12.21,24.414 -26.43,58.32 -36.61,88.828 2.71,-18.301 6.78,-61.7 6.78,-120.02 V 9.91797 H 1299.58 V 482.574 h 116.62 l 86.14,-162.082 c 13.55,-25.086 27.79,-58.316 39.33,-90.183 -3.39,27.8 -4.08,74.589 -4.08,105.781 v 146.484 h 115.29 V 9.91797 H 1528.1" /><path
             id="path28"
             style="fill:#b0a056;fill-opacity:1;fill-rule:nonzero;stroke:none"
             d="m 311.816,390.223 c -3.128,-22.141 -10.472,-36.789 -4.55,-68.313 10.082,-53.359 44.675,-51.379 45.691,-108.262 0,-0.886 0.742,-1.632 1.652,-1.593 0.661,0 1.25,0.39 1.5,1 17.582,27.175 28.739,62.125 29.93,101.422 1.184,55.531 -22.715,102.843 -63.121,136.195 -0.402,0.254 -0.547,0.84 -0.262,1.266 0.262,0.453 0.844,0.558 1.258,0.285 60.801,-40.508 90.168,-106.719 75.84,-177.09 -9.203,-45.91 -32.481,-83.328 -65.824,-104.317 -14.957,-9.406 -23.926,-12.851 -40.231,-17.058 -1.035,-0.324 -1.035,-1.946 0.133,-2.375 2.805,-1.27 5.352,-2.571 7.785,-3.914 0.961,-0.531 1.805,-0.531 2.711,0.172 26.887,17.074 61.555,30.824 98.113,35.492 12.438,1.57 38.633,6.265 35.446,24.773 -1.797,7.332 -2.489,13.633 -4.325,20.867 -1.843,7.239 5.11,9.875 8.629,12.844 3.813,5.957 0.649,10.43 -4.668,14.129 -1.781,1.27 -1.503,2.492 -0.582,2.68 5.914,0.386 10.754,5.125 9.493,9.668 -2.387,6.004 -10.61,15.777 -3.309,25.457 3.953,5.285 5.16,6.347 12.488,8.133 6.891,1.703 9.871,9.777 6.289,14.55 -13.191,16.828 -23.261,28.868 -36.211,45.481 -6.093,12.258 9.981,28.801 -4.558,43.957 -36.149,37.859 -83.434,69.383 -149.227,76.949 -1.195,0 -2.152,-1.023 -2.152,-2.195 2.414,-15.196 13.219,-25.606 23.379,-35.176 14.883,-14.004 21.555,-34.805 18.683,-55.027" /><path
             id="path30"
             style="fill:#b0a056;fill-opacity:1;fill-rule:nonzero;stroke:none"
             d="m 437.129,92.5078 c 0.566,1.0234 0.019,2.5078 -0.996,3.0625 -14.231,5.4887 -28.574,1.2109 -41.84,-2.8476 -19.453,-6.0391 -40.652,-1.4258 -56.578,11.1793 -17.403,13.789 -26.324,27.578 -56.246,38.094 -50.836,17.895 -66.422,-13.348 -115.707,14.199 -0.778,0.469 -1.774,0.157 -2.231,-0.633 -0.32,-0.554 -0.242,-1.281 0.168,-1.804 14.492,-28.957 38.867,-56.2111 71.992,-76.8869 47.032,-28.7773 99.508,-31.5625 148.352,-12.9297 0.437,0.2422 0.996,0.0859 1.238,-0.3711 0.223,-0.4492 0.043,-1.0156 -0.429,-1.2812 C 319.73,29.3984 248.262,36.832 195.078,84.5469 160.312,115.523 139.859,154.605 138.516,194.242 c -0.551,17.813 0.941,27.356 5.472,43.731 0.293,1.054 -1.082,1.886 -2.082,1.054 -2.472,-1.773 -4.875,-3.347 -7.234,-4.785 -0.93,-0.625 -1.348,-1.363 -1.215,-2.508 -0.121,-41.64 -7.418,-91.218 -26.437,-135.3707 -2.586,-6.0352 -0.161,-13.3594 3.648,-17.4414 5.254,-5.6836 9.937,-4.1133 16.344,-7.5586 5.941,-1.9922 8.394,-10.625 9.957,-14.7461 3.136,-3.75 6.742,-3.6719 8.949,-2.668 0.445,0.2344 1.16,0.0899 1.16,0.0899 0.262,-1.7305 0.949,-5.1758 4.149,-7.7149 1.886,-0.9453 11.625,2.1563 14.679,-3.039 4.446,-7.129 -0.066,-19.3243 9.098,-22.6368 13.203,-0.2695 30.199,6.1954 45.344,3.8789 16.058,-2.7461 26.804,-15.60542 42.82,-20.69136 11.441,-3.371096 21.957,-4.9336 33.098,-2.980471 C 345.77,12.5625 397.832,39.5859 437.129,92.5078" /><path
             id="path32"
             style="fill:#b0a056;fill-opacity:1;fill-rule:nonzero;stroke:none"
             d="m 18.8047,143.68 c 0.6172,-1.039 2.1523,-1.274 3.1367,-0.676 11.8281,9.734 15.3711,24.355 18.4766,38.016 4.582,20.031 19.0976,36.281 37.8711,43.898 20.5234,8.32 36.7889,9.219 60.8199,30.168 40.758,35.484 21.739,64.734 70.016,94.051 0.758,0.468 1.031,1.496 0.605,2.285 -0.367,0.586 -1.031,0.848 -1.613,0.793 -32.172,1.773 -67.672,-5.949 -101.98,-24.574 -48.2503,-26.715 -76.8714,-71.239 -85.2659,-123.27 -0.0234,-0.508 -0.4336,-0.879 -0.9102,-0.867 -0.539,0.027 -0.9297,0.469 -0.8984,0.984 4.3359,73.407 46.4648,132.215 113.9145,154.844 44,14.934 87.753,13.27 122.39,-5.402 15.543,-8.368 23.031,-14.52 34.789,-26.641 0.766,-0.738 2.145,0.02 1.93,1.301 -0.274,3.066 -0.449,5.945 -0.481,8.711 -0.07,1.133 -0.484,1.914 -1.523,2.324 -28.102,14.98 -57.246,38.437 -79.555,68.113 -7.617,10.141 -23.14,27.696 -38.98,18.633 -6.504,-3.824 -7.817,-5.586 -13.184,-12.305 -4.648,-5.808 -14.273,-3.496 -17.918,-0.808 -7.023,0.398 -12.586,-5.742 -11.531,-12.18 0.313,-1.836 -1.387,-2.547 -1.996,-1.863 -3.356,4.988 -14.012,6.035 -17.516,0.097 -0.55,-4.257 -5.519,-14.941 -13.07,-10.175 -8.6289,6.836 -17.9922,6.511 -22.1367,-1.028 C 66.9766,373.48 67.0156,370.602 51.1172,344.41 42.2734,333.148 14.7617,323.082 9.6875,307.973 -3.07031,257.895 -6.18359,206.297 18.8047,143.68" /><path
             id="path34"
             style="fill:#ffffff;fill-opacity:1;fill-rule:nonzero;stroke:none"
             d="m 1785.64,465.074 h -2.56 l -0.63,2.539 c -1.69,6.825 -2.89,9.778 -14.14,9.778 h -15.93 v -54.297 c 0,-12.832 1.58,-15 11.66,-15 v -2.699 h -33.07 v 2.699 c 10.18,0 11.74,2.168 11.74,15 v 54.297 h -16 c -11.23,0 -12.46,-2.953 -14.16,-9.778 l -0.6,-2.539 h -2.56 l 1.09,17.324 h 74.06 l 1.1,-17.324" /><path
             id="path36"
             style="fill:#ffffff;fill-opacity:1;fill-rule:nonzero;stroke:none"
             d="m 1798.57,445.445 c -9.98,0 -14.79,-8.359 -14.79,-18.625 0,-10.261 4.81,-18.609 14.79,-18.609 10.13,0 14.76,8.348 14.76,18.609 0,10.266 -4.63,18.625 -14.76,18.625 m 0,-42.246 c -13.56,0 -24.63,10.653 -24.63,23.621 0,12.961 11.07,23.481 24.63,23.481 13.55,0 24.63,-10.52 24.63,-23.481 0,-12.968 -11.08,-23.621 -24.63,-23.621" /><path
             id="path38"
             style="fill:#ffffff;fill-opacity:1;fill-rule:nonzero;stroke:none"
             d="m 1863.47,436.324 c -2.3,0 -4.3,2.18 -4.3,4.61 0,2.707 -1.46,4.246 -3.9,4.246 -2.8,0 -9.36,-4.754 -9.36,-15.028 v -7.058 c 0,-12.844 1.47,-15.012 9.61,-15.012 v -2.695 h -27.91 v 2.695 c 8.03,0 9.61,2.168 9.61,15.012 v 6.414 c 0,12.851 -1.58,14.902 -9.61,14.902 v 2.688 l 16.23,3.203 c 0.61,-1.281 1.7,-6.535 2.07,-9.25 2.44,5.144 7.91,9.25 12.78,9.25 6.73,0 9.66,-4.739 9.66,-7.942 0,-2.832 -1.09,-6.035 -4.88,-6.035" /><path
             id="path40"
             style="fill:#ffffff;fill-opacity:1;fill-rule:nonzero;stroke:none"
             d="m 1898.96,445.445 c -10.02,0 -14.77,-8.359 -14.77,-18.625 0,-10.261 4.75,-18.609 14.77,-18.609 10.1,0 14.74,8.348 14.74,18.609 0,10.266 -4.64,18.625 -14.74,18.625 m 0,-42.246 c -13.54,0 -24.67,10.653 -24.67,23.621 0,12.961 11.13,23.481 24.67,23.481 13.51,0 24.63,-10.52 24.63,-23.481 0,-12.968 -11.12,-23.621 -24.63,-23.621" /><path
             id="path42"
             style="fill:#ffffff;fill-opacity:1;fill-rule:nonzero;stroke:none"
             d="m 1963.22,450.301 c 11.01,0 15.88,-8.196 15.88,-19.133 v -8.074 c 0,-12.832 1.46,-15.012 9.66,-15.012 v -2.676 h -27.97 v 2.676 c 7.91,0 9.67,2.18 9.67,15.012 v 7.449 c 0,8.328 -2.85,13.75 -10.15,13.75 -6.68,0 -14.05,-5.789 -14.05,-12.863 v -8.336 c 0,-13.215 0.98,-15.012 8.58,-15.012 v -2.676 h -26.9 v 2.676 c 8.11,0 9.69,2.18 9.69,15.012 v 6.414 c 0,12.851 -1.58,14.902 -9.69,14.902 v 2.676 l 16.25,3.215 c 0.61,-1.281 1.7,-6.535 2.07,-9.242 3.3,4.386 8.93,9.242 16.96,9.242" /><path
             id="path44"
             style="fill:#ffffff;fill-opacity:1;fill-rule:nonzero;stroke:none"
             d="m 1989.58,443.641 v 3.062 c 7.31,1.672 9.98,7.199 10.82,15.559 h 4.14 v -14.141 h 10.65 v -4.48 h -10.65 v -25.93 c 0,-6.172 1.65,-9.375 5.53,-9.375 2.21,0 5.12,1.66 7.91,4.492 l 2.07,-2.18 c -3.4,-4.351 -8.75,-7.46 -12.77,-7.46 -6.74,0 -11.37,4.511 -11.37,14.523 v 25.93 h -6.33" /><path
             id="path46"
             style="fill:#ffffff;fill-opacity:1;fill-rule:nonzero;stroke:none"
             d="m 2047.77,445.445 c -10.02,0 -14.77,-8.359 -14.77,-18.625 0,-10.261 4.75,-18.609 14.77,-18.609 10.1,0 14.76,8.348 14.76,18.609 0,10.266 -4.66,18.625 -14.76,18.625 m 0,-42.246 c -13.56,0 -24.67,10.653 -24.67,23.621 0,12.961 11.11,23.481 24.67,23.481 13.55,0 24.63,-10.52 24.63,-23.481 0,-12.968 -11.08,-23.621 -24.63,-23.621" /><path
             id="path48"
             style="fill:#ffffff;fill-opacity:1;fill-rule:nonzero;stroke:none"
             d="m 2155.6,434.652 v 2.563 h 31.97 v -2.563 c -10.15,0 -11.6,-2.168 -11.6,-15.015 v -9.758 c -13.55,0 -19.02,-6.691 -31.76,-6.691 -20.58,0 -37.44,18.371 -37.44,40.703 0,22.328 16.86,40.683 37.44,40.683 8.6,0 16.49,-3.965 22.72,-10.894 1.6,1.258 3.57,4.109 4.16,7.3 h 2.44 v -28.23 h -2.44 c -3.3,16.688 -12.81,26.836 -26.51,26.836 -19.51,0 -26.56,-19.766 -26.56,-35.695 0,-15.918 6.33,-35.164 28.89,-35.164 10.62,0 20.13,6.043 20.13,17.585 0,5.508 -3.06,8.34 -11.44,8.34" /><path
             id="path50"
             style="fill:#ffffff;fill-opacity:1;fill-rule:nonzero;stroke:none"
             d="m 2223.18,434.781 c 1.35,4.09 -0.74,10.399 -8.81,10.399 -5.24,0 -9.73,-4.129 -11.49,-10.399 z m -5.16,-26.183 c 4.04,0 9.9,2.433 13.44,5.918 l 2.19,-2.852 c -4.26,-4.742 -11.7,-8.465 -18.68,-8.465 -13.43,0 -22.53,10.637 -22.53,23.621 0,13.606 11.19,23.481 22.53,23.481 10.88,0 19.52,-9.25 16.61,-20.285 h -29.42 c -1.46,-12.051 3.34,-21.418 15.86,-21.418" /><path
             id="path52"
             style="fill:#ffffff;fill-opacity:1;fill-rule:nonzero;stroke:none"
             d="m 2274.31,450.301 c 11,0 15.84,-8.196 15.84,-19.133 v -8.074 c 0,-12.832 1.47,-15.012 9.69,-15.012 v -2.676 h -27.97 v 2.676 c 7.95,0 9.65,2.18 9.65,15.012 v 7.449 c 0,8.328 -2.8,13.75 -10.14,13.75 -6.7,0 -14.04,-5.789 -14.04,-12.863 v -8.336 c 0,-13.215 0.99,-15.012 8.55,-15.012 v -2.676 h -26.85 v 2.676 c 8.08,0 9.66,2.18 9.66,15.012 v 6.414 c 0,12.851 -1.58,14.902 -9.66,14.902 v 2.676 l 16.23,3.215 c 0.6,-1.281 1.7,-6.535 2.07,-9.242 3.34,4.386 8.94,9.242 16.97,9.242" /><path
             id="path54"
             style="fill:#ffffff;fill-opacity:1;fill-rule:nonzero;stroke:none"
             d="m 2331.42,434.781 c 1.35,4.09 -0.74,10.399 -8.81,10.399 -5.23,0 -9.74,-4.129 -11.48,-10.399 z m -5.16,-26.183 c 4.03,0 9.91,2.433 13.42,5.918 l 2.21,-2.852 c -4.26,-4.742 -11.72,-8.465 -18.69,-8.465 -13.42,0 -22.54,10.637 -22.54,23.621 0,13.606 11.19,23.481 22.54,23.481 10.9,0 19.53,-9.25 16.62,-20.285 h -29.42 c -1.48,-12.051 3.32,-21.418 15.86,-21.418" /><path
             id="path56"
             style="fill:#ffffff;fill-opacity:1;fill-rule:nonzero;stroke:none"
             d="m 2381.89,436.324 c -2.33,0 -4.26,2.18 -4.26,4.61 0,2.707 -1.46,4.246 -3.91,4.246 -2.81,0 -9.39,-4.754 -9.39,-15.028 v -7.058 c 0,-12.844 1.45,-15.012 9.65,-15.012 v -2.695 h -27.97 v 2.695 c 8.07,0 9.67,2.168 9.67,15.012 v 6.414 c 0,12.851 -1.6,14.902 -9.67,14.902 v 2.688 l 16.23,3.203 c 0.61,-1.281 1.7,-6.535 2.09,-9.25 2.44,5.144 7.93,9.25 12.81,9.25 6.7,0 9.67,-4.739 9.67,-7.942 0,-2.832 -1.09,-6.035 -4.92,-6.035" /><path
             id="path58"
             style="fill:#ffffff;fill-opacity:1;fill-rule:nonzero;stroke:none"
             d="m 2416.89,428.746 c -11.56,-2.82 -16.84,-7.082 -16.84,-12.707 0,-4.117 2.7,-6.543 5.76,-6.543 2.56,0 5.47,0.891 11.08,6.164 z m 8.55,-24.785 c -4.74,0 -7.71,2.844 -8.32,7.449 -5.95,-5.625 -10.35,-7.703 -15.25,-7.703 -5.96,0 -10.96,3.992 -10.96,10.801 0,10.906 12.09,15.633 25.98,18.23 0,9.621 -1.23,13.457 -8.17,13.457 -2.79,0 -6.97,-2.039 -6.97,-6.16 0,-2.566 -1.83,-4.48 -4.14,-4.48 -2.44,0 -4.26,1.914 -4.26,4.48 0,6.16 7.68,10.266 15.49,10.266 11.86,0 16.74,-5.254 16.74,-17.434 v -19.414 c 0,-3.191 0.96,-4.98 2.79,-4.98 1.21,0 2.56,1.023 3.42,1.914 l 1.68,-2.422 c -2.3,-2.559 -5.33,-4.004 -8.03,-4.004" /><path
             id="path60"
             style="fill:#ffffff;fill-opacity:1;fill-rule:nonzero;stroke:none"
             d="m 2437.73,405.395 v 2.699 c 8.2,0 9.67,2.168 9.67,15 v 40.574 c 0,12.82 -1.47,15.027 -9.67,15.027 v 2.688 l 18.3,3.191 v -61.48 c 0,-12.832 1.62,-15 9.67,-15 v -2.699 h -27.97" /><path
             id="path62"
             style="fill:#ffffff;fill-opacity:1;fill-rule:nonzero;stroke:none"
             d="m 1785.64,333.297 h -2.56 l -0.63,2.551 c -1.69,6.824 -2.89,9.773 -14.14,9.773 h -15.93 v -54.309 c 0,-12.847 1.58,-15.027 11.66,-15.027 v -2.676 h -33.07 v 2.676 c 10.18,0 11.74,2.18 11.74,15.027 v 54.309 h -16 c -11.23,0 -12.46,-2.949 -14.16,-9.773 l -0.6,-2.551 h -2.56 l 1.09,17.297 h 74.06 l 1.1,-17.297" /><path
             id="path64"
             style="fill:#ffffff;fill-opacity:1;fill-rule:nonzero;stroke:none"
             d="m 1798.57,313.641 c -9.98,0 -14.79,-8.352 -14.79,-18.618 0,-10.261 4.81,-18.613 14.79,-18.613 10.13,0 14.76,8.352 14.76,18.613 0,10.266 -4.63,18.618 -14.76,18.618 m 0,-42.211 c -13.56,0 -24.63,10.644 -24.63,23.593 0,12.981 11.07,23.497 24.63,23.497 13.55,0 24.63,-10.516 24.63,-23.497 0,-12.949 -11.08,-23.593 -24.63,-23.593" /><path
             id="path66"
             style="fill:#ffffff;fill-opacity:1;fill-rule:nonzero;stroke:none"
             d="m 1863.47,304.516 c -2.3,0 -4.3,2.199 -4.3,4.64 0,2.688 -1.46,4.219 -3.9,4.219 -2.8,0 -9.36,-4.734 -9.36,-14.988 v -7.075 c 0,-12.847 1.47,-15.027 9.61,-15.027 v -2.687 h -27.91 v 2.687 c 8.03,0 9.61,2.18 9.61,15.027 v 6.426 c 0,12.824 -1.58,14.864 -9.61,14.864 v 2.726 l 16.23,3.203 c 0.61,-1.301 1.7,-6.554 2.07,-9.25 2.44,5.117 7.91,9.25 12.78,9.25 6.73,0 9.66,-4.773 9.66,-7.969 0,-2.812 -1.09,-6.046 -4.88,-6.046" /><path
             id="path68"
             style="fill:#ffffff;fill-opacity:1;fill-rule:nonzero;stroke:none"
             d="m 1898.96,313.641 c -10.02,0 -14.77,-8.352 -14.77,-18.618 0,-10.261 4.75,-18.613 14.77,-18.613 10.1,0 14.74,8.352 14.74,18.613 0,10.266 -4.64,18.618 -14.74,18.618 m 0,-42.211 c -13.54,0 -24.67,10.644 -24.67,23.593 0,12.981 11.13,23.497 24.67,23.497 13.51,0 24.63,-10.516 24.63,-23.497 0,-12.949 -11.12,-23.593 -24.63,-23.593" /><path
             id="path70"
             style="fill:#ffffff;fill-opacity:1;fill-rule:nonzero;stroke:none"
             d="m 1963.22,318.52 c 11.01,0 15.88,-8.211 15.88,-19.122 v -8.086 c 0,-12.847 1.46,-15.015 9.66,-15.015 v -2.699 h -27.97 v 2.699 c 7.91,0 9.67,2.168 9.67,15.015 v 7.454 c 0,8.339 -2.85,13.718 -10.15,13.718 -6.68,0 -14.05,-5.761 -14.05,-12.82 v -8.352 c 0,-13.23 0.98,-15.015 8.58,-15.015 v -2.699 h -26.9 v 2.699 c 8.11,0 9.69,2.168 9.69,15.015 v 6.418 c 0,12.832 -1.58,14.883 -9.69,14.883 v 2.715 l 16.25,3.192 c 0.61,-1.29 1.7,-6.551 2.07,-9.239 3.3,4.36 8.93,9.239 16.96,9.239" /><path
             id="path72"
             style="fill:#ffffff;fill-opacity:1;fill-rule:nonzero;stroke:none"
             d="m 1989.58,311.844 v 3.086 c 7.31,1.675 9.98,7.175 10.82,15.523 h 4.14 v -14.101 h 10.65 v -4.508 h -10.65 v -25.942 c 0,-6.14 1.65,-9.363 5.53,-9.363 2.21,0 5.12,1.672 7.91,4.5 l 2.07,-2.176 c -3.4,-4.367 -8.75,-7.433 -12.77,-7.433 -6.74,0 -11.37,4.465 -11.37,14.472 v 25.942 h -6.33" /><path
             id="path74"
             style="fill:#ffffff;fill-opacity:1;fill-rule:nonzero;stroke:none"
             d="m 2047.77,313.641 c -10.02,0 -14.77,-8.352 -14.77,-18.618 0,-10.261 4.75,-18.613 14.77,-18.613 10.1,0 14.76,8.352 14.76,18.613 0,10.266 -4.66,18.618 -14.76,18.618 m 0,-42.211 c -13.56,0 -24.67,10.644 -24.67,23.593 0,12.981 11.11,23.497 24.67,23.497 13.55,0 24.63,-10.516 24.63,-23.497 0,-12.949 -11.08,-23.593 -24.63,-23.593" /><path
             id="path76"
             style="fill:#ffffff;fill-opacity:1;fill-rule:nonzero;stroke:none"
             d="m 2133.78,271.422 h -1.72 l -19.68,65.332 c -2.93,9.492 -4.4,11.16 -14.59,11.16 v 2.688 h 34.27 v -2.688 c -10.25,0 -11.71,-2.566 -9.66,-9.742 l 13.32,-44.301 17.09,56.731 h 1.81 l 17.07,-56.602 13.3,44.172 c 1.98,7.058 0.1,9.742 -8.53,9.742 v 2.688 h 27.44 v -2.688 c -10.23,0 -11.93,-2.566 -14.51,-11.16 l -19.75,-65.332 h -1.6 l -17.05,56.863 -17.21,-56.863" /><path
             id="path78"
             style="fill:#ffffff;fill-opacity:1;fill-rule:nonzero;stroke:none"
             d="m 2218.39,302.984 c 1.33,4.121 -0.74,10.391 -8.77,10.391 -5.23,0 -9.78,-4.094 -11.48,-10.391 z m -5.11,-26.191 c 4,0 9.92,2.473 13.41,5.93 l 2.23,-2.832 c -4.28,-4.77 -11.74,-8.469 -18.69,-8.469 -13.44,0 -22.56,10.652 -22.56,23.601 0,13.625 11.19,23.497 22.56,23.497 10.84,0 19.53,-9.239 16.6,-20.262 h -29.41 c -1.47,-12.09 3.28,-21.465 15.86,-21.465" /><path
             id="path80"
             style="fill:#ffffff;fill-opacity:1;fill-rule:nonzero;stroke:none"
             d="m 2251.58,271.422 c -8.42,0 -13.09,9.121 -13.09,0 h -2.42 v 18.73 h 2.42 c 0,-5.793 4.67,-14.375 13.44,-14.375 3.88,0 6.85,2.957 6.85,6.551 0,3.195 -2.59,5.52 -6.85,7.824 l -6.68,3.848 c -6.02,3.359 -8.21,8.73 -8.21,12.852 0,6.906 6.12,11.668 12.47,11.668 9.16,0 10.99,-6.676 10.99,0 h 2.54 v -14.891 h -2.54 c 0,5.398 -3.71,10.769 -9.9,10.769 -4.14,0 -6.21,-2.3 -6.21,-5.496 0,-3.086 2.07,-4.765 7.42,-7.843 l 5.84,-3.329 c 5.39,-3.214 8.44,-7.707 8.44,-12.335 0,-8.465 -6.56,-13.973 -14.51,-13.973" /><path
             id="path82"
             style="fill:#ffffff;fill-opacity:1;fill-rule:nonzero;stroke:none"
             d="m 2271.19,311.844 v 3.086 c 7.36,1.675 10.01,7.175 10.87,15.523 h 4.14 v -14.101 h 10.65 v -4.508 h -10.65 v -25.942 c 0,-6.14 1.59,-9.363 5.49,-9.363 2.19,0 5.16,1.672 7.95,4.5 l 2.07,-2.176 c -3.4,-4.367 -8.81,-7.433 -12.81,-7.433 -6.72,0 -11.33,4.465 -11.33,14.472 v 25.942 h -6.38" /><path
             id="path84"
             style="fill:#ffffff;fill-opacity:1;fill-rule:nonzero;stroke:none"
             d="m 2335.5,302.984 c 1.35,4.121 -0.72,10.391 -8.81,10.391 -5.23,0 -9.72,-4.094 -11.42,-10.391 z m -5.13,-26.191 c 4.04,0 9.88,2.473 13.41,5.93 l 2.19,-2.832 c -4.26,-4.77 -11.66,-8.469 -18.67,-8.469 -13.38,0 -22.56,10.652 -22.56,23.601 0,13.625 11.25,23.497 22.56,23.497 10.9,0 19.53,-9.239 16.6,-20.262 h -29.36 c -1.48,-12.09 3.27,-21.465 15.83,-21.465" /><path
             id="path86"
             style="fill:#ffffff;fill-opacity:1;fill-rule:nonzero;stroke:none"
             d="m 2386.01,304.516 c -2.34,0 -4.32,2.199 -4.32,4.64 0,2.688 -1.46,4.219 -3.88,4.219 -2.8,0 -9.36,-4.734 -9.36,-14.988 v -7.075 c 0,-12.847 1.47,-15.027 9.61,-15.027 v -2.687 h -27.91 v 2.687 c 8.03,0 9.61,2.18 9.61,15.027 v 6.426 c 0,12.824 -1.58,14.864 -9.61,14.864 v 2.726 l 16.19,3.203 c 0.63,-1.301 1.74,-6.554 2.11,-9.25 2.42,5.117 7.91,9.25 12.75,9.25 6.76,0 9.67,-4.773 9.67,-7.969 0,-2.812 -1.09,-6.046 -4.86,-6.046" /><path
             id="path88"
             style="fill:#ffffff;fill-opacity:1;fill-rule:nonzero;stroke:none"
             d="m 2430.87,318.52 c 11.02,0 15.88,-8.211 15.88,-19.122 v -8.086 c 0,-12.847 1.47,-15.015 9.63,-15.015 v -2.699 h -27.93 v 2.699 c 7.91,0 9.63,2.168 9.63,15.015 v 7.454 c 0,8.339 -2.81,13.718 -10.12,13.718 -6.7,0 -14.04,-5.761 -14.04,-12.82 v -8.352 c 0,-13.23 0.98,-15.015 8.57,-15.015 v -2.699 h -26.89 v 2.699 c 8.1,0 9.69,2.168 9.69,15.015 v 6.418 c 0,12.832 -1.59,14.883 -9.69,14.883 v 2.715 l 16.25,3.192 c 0.6,-1.29 1.7,-6.551 2.07,-9.239 3.28,4.36 8.93,9.239 16.95,9.239" /><path
             id="path90"
             style="fill:#ffffff;fill-opacity:1;fill-rule:nonzero;stroke:none"
             d="m 1760.64,197.137 c 0,9.234 -4.86,16.929 -15.51,16.929 h -10.68 v -33.855 h 10.68 c 10.65,0 15.51,7.539 15.51,16.926 m 10.88,0 c 0,-11.946 -9.3,-21.567 -26.25,-21.567 h -10.82 v -16.054 c 0,-12.832 1.44,-15 11.54,-15 v -2.723 h -32.95 v 2.723 c 10.16,0 11.62,2.168 11.62,15 v 41.73 c 0,12.82 -1.46,14.902 -11.62,14.902 v 2.676 h 32.23 c 16.95,0 26.25,-9.746 26.25,-21.687" /><path
             id="path92"
             style="fill:#ffffff;fill-opacity:1;fill-rule:nonzero;stroke:none"
             d="m 1810.09,172.762 c -2.32,0 -4.31,2.156 -4.31,4.597 0,2.727 -1.47,4.258 -3.91,4.258 -2.77,0 -9.36,-4.765 -9.36,-15.027 v -7.074 c 0,-12.832 1.47,-15 9.59,-15 v -2.723 h -27.89 v 2.723 c 8.03,0 9.61,2.168 9.61,15 v 6.425 c 0,12.825 -1.58,14.895 -9.61,14.895 v 2.695 l 16.23,3.192 c 0.61,-1.278 1.7,-6.512 2.07,-9.239 2.44,5.149 7.91,9.239 12.78,9.239 6.75,0 9.66,-4.727 9.66,-7.957 0,-2.813 -1.09,-6.004 -4.86,-6.004" /><path
             id="path94"
             style="fill:#ffffff;fill-opacity:1;fill-rule:nonzero;stroke:none"
             d="m 1832.44,199.32 c -2.91,0 -5.36,2.571 -5.36,5.766 0,3.094 2.45,5.66 5.36,5.66 2.91,0 5.35,-2.566 5.35,-5.66 0,-3.195 -2.44,-5.766 -5.35,-5.766 m -13.93,-57.527 v 2.723 c 8.09,0 9.67,2.168 9.67,15 v 6.425 c 0,12.825 -1.58,14.895 -9.67,14.895 v 2.695 l 18.3,3.192 v -27.207 c 0,-12.832 1.47,-15 9.67,-15 v -2.723 h -27.97" /><path
             id="path96"
             style="fill:#ffffff;fill-opacity:1;fill-rule:nonzero;stroke:none"
             d="m 1886.34,186.723 c 11,0 15.86,-8.211 15.86,-19.121 v -8.086 c 0,-12.832 1.47,-15 9.61,-15 v -2.723 h -27.89 v 2.723 c 7.87,0 9.59,2.168 9.59,15 v 7.453 c 0,8.347 -2.79,13.742 -10.1,13.742 -6.74,0 -14.04,-5.793 -14.04,-12.844 v -8.351 c 0,-13.211 0.98,-15 8.51,-15 v -2.723 h -26.81 v 2.723 c 8.03,0 9.65,2.168 9.65,15 v 6.425 c 0,12.825 -1.62,14.895 -9.65,14.895 v 2.695 l 16.23,3.192 c 0.6,-1.278 1.72,-6.512 2.07,-9.239 3.28,4.387 8.89,9.239 16.97,9.239" /><path
             id="path98"
             style="fill:#ffffff;fill-opacity:1;fill-rule:nonzero;stroke:none"
             d="m 1922.45,162.105 c 0,-10.293 4.75,-17.082 14.77,-17.082 4.02,0 9,1.938 13.03,5.891 l 2.13,-2.82 c -4.69,-5.254 -11.25,-8.457 -18.17,-8.457 -13.59,0 -21.66,9.605 -21.66,22.468 0,15.125 11.86,24.618 21.66,24.618 10.06,0 14.46,-4.469 14.46,-9.239 0,-2.039 -1.22,-5.507 -5.36,-5.507 -2.69,0 -4.72,2.316 -4.72,5.128 0,4.247 -2.21,5.528 -4.38,5.528 -6.52,0 -11.76,-8.731 -11.76,-20.528" /><path
             id="path100"
             style="fill:#ffffff;fill-opacity:1;fill-rule:nonzero;stroke:none"
             d="m 1986.34,171.219 c 1.39,4.097 -0.72,10.398 -8.75,10.398 -5.23,0 -9.78,-4.133 -11.48,-10.398 z m -5.12,-26.196 c 4.05,0 9.91,2.446 13.46,5.891 l 2.17,-2.82 c -4.24,-4.739 -11.72,-8.457 -18.65,-8.457 -13.44,0 -22.56,10.64 -22.56,23.621 0,13.594 11.19,23.465 22.56,23.465 10.88,0 19.51,-9.239 16.6,-20.262 h -29.43 c -1.45,-12.051 3.28,-21.438 15.85,-21.438" /><path
             id="path102"
             style="fill:#ffffff;fill-opacity:1;fill-rule:nonzero;stroke:none"
             d="m 2018.35,139.637 c -8.4,0 -13.02,9.109 -13.02,0 h -2.46 v 18.726 h 2.46 c 0,-5.761 4.62,-14.363 13.39,-14.363 3.89,0 6.86,2.961 6.86,6.531 0,3.227 -2.58,5.528 -6.86,7.832 l -6.68,3.867 c -5.97,3.332 -8.2,8.735 -8.2,12.832 0,6.934 6.11,11.661 12.46,11.661 9.16,0 11,-6.637 11,0 h 2.56 v -14.871 h -2.56 c 0,5.378 -3.65,10.781 -9.92,10.781 -4.12,0 -6.19,-2.293 -6.19,-5.528 0,-3.078 2.07,-4.726 7.4,-7.839 l 5.9,-3.325 c 5.37,-3.203 8.39,-7.714 8.39,-12.312 0,-8.477 -6.56,-13.992 -14.53,-13.992" /><path
             id="path104"
             style="fill:#ffffff;fill-opacity:1;fill-rule:nonzero;stroke:none"
             d="m 2054.15,139.637 c -8.39,0 -13.06,9.109 -13.06,0 h -2.42 v 18.726 h 2.42 c 0,-5.761 4.67,-14.363 13.44,-14.363 3.88,0 6.85,2.961 6.85,6.531 0,3.227 -2.6,5.528 -6.85,7.832 l -6.7,3.867 c -5.96,3.332 -8.21,8.735 -8.21,12.832 0,6.934 6.14,11.661 12.46,11.661 9.18,0 11,-6.637 11,0 h 2.58 v -14.871 h -2.58 c 0,5.378 -3.67,10.781 -9.9,10.781 -4.14,0 -6.21,-2.293 -6.21,-5.528 0,-3.078 2.07,-4.726 7.42,-7.839 l 5.9,-3.325 c 5.37,-3.203 8.4,-7.714 8.4,-12.312 0,-8.477 -6.59,-13.992 -14.54,-13.992" /><path
             id="path106"
             style="fill:#ffffff;fill-opacity:1;fill-rule:nonzero;stroke:none"
             d="m 2117.44,159.516 c 0,-12.832 1.58,-15 11.68,-15 v -2.723 h -27.78 v 2.723 c 10.08,0 11.54,2.168 11.54,15 v 41.73 c 0,12.82 -1.46,14.902 -11.54,14.902 v 2.676 h 20.72 l 25.84,-62.5 25.77,62.5 h 19.16 v -2.676 c -10.3,0 -11.74,-2.082 -11.74,-14.902 v -41.73 c 0,-12.832 1.44,-15 11.74,-15 v -2.723 h -32.95 v 2.723 c 10.13,0 11.6,2.168 11.6,15 v 41.855 l -25.41,-61.734 h -1.58 l -27.05,65.574 v -45.695" /><path
             id="path108"
             style="fill:#ffffff;fill-opacity:1;fill-rule:nonzero;stroke:none"
             d="m 2223.06,165.18 c -11.6,-2.813 -16.84,-7.071 -16.84,-12.703 0,-4.122 2.68,-6.543 5.73,-6.543 2.56,0 5.47,0.886 11.11,6.14 z m 8.52,-24.793 c -4.75,0 -7.66,2.832 -8.27,7.461 -6.03,-5.657 -10.39,-7.715 -15.27,-7.715 -6,0 -11,4.004 -11,10.781 0,10.93 12.11,15.676 26.02,18.223 0,9.629 -1.25,13.496 -8.2,13.496 -2.78,0 -6.94,-2.039 -6.94,-6.172 0,-2.559 -1.81,-4.484 -4.16,-4.484 -2.44,0 -4.29,1.925 -4.29,4.484 0,6.172 7.73,10.262 15.5,10.262 11.86,0 16.74,-5.243 16.74,-17.457 v -19.368 c 0,-3.214 0.98,-5 2.8,-5 1.21,0 2.55,1.036 3.39,1.922 l 1.72,-2.429 c -2.32,-2.598 -5.37,-4.004 -8.04,-4.004" /><path
             id="path110"
             style="fill:#ffffff;fill-opacity:1;fill-rule:nonzero;stroke:none"
             d="m 2279.66,172.762 c -2.32,0 -4.31,2.156 -4.31,4.597 0,2.727 -1.45,4.258 -3.89,4.258 -2.81,0 -9.36,-4.765 -9.36,-15.027 v -7.074 c 0,-12.832 1.45,-15 9.59,-15 v -2.723 h -27.91 v 2.723 c 8.03,0 9.63,2.168 9.63,15 v 6.425 c 0,12.825 -1.6,14.895 -9.63,14.895 v 2.695 l 16.25,3.192 c 0.59,-1.278 1.7,-6.512 2.07,-9.239 2.43,5.149 7.89,9.239 12.76,9.239 6.76,0 9.67,-4.727 9.67,-7.957 0,-2.813 -1.08,-6.004 -4.87,-6.004" /><path
             id="path112"
             style="fill:#ffffff;fill-opacity:1;fill-rule:nonzero;stroke:none"
             d="m 2307.92,182.633 c -5.95,0 -8.88,-5.781 -8.88,-13.367 0,-7.422 2.93,-13.207 8.88,-13.207 6.02,0 8.81,5.785 8.81,13.207 0,7.586 -2.79,13.367 -8.81,13.367 m -0.23,-41.082 c 16.82,-1.418 22.19,-8.989 22.19,-16.821 0,-10.64 -9.61,-17.175 -21.59,-17.175 -20.62,0 -28.63,15.898 -13.65,24.101 l 2.21,-1.386 c -10.14,-11.922 1.84,-17.715 11.44,-17.715 7.58,0 15.14,3.855 15.14,9.883 0,6.027 -6.07,7.957 -16.35,8.984 -10,1.016 -17.34,4.238 -17.34,11.933 0,4.61 3.91,8.204 10.27,10.274 -6.13,3.066 -10.27,8.738 -10.27,15.637 0,9.636 8.2,17.457 18.18,17.457 4.91,0 9.3,-1.785 12.58,-4.852 2.19,2.813 6.58,4.852 9.12,4.852 8.46,0 8.95,-10.516 4.08,-10.77 -5.41,-0.383 -2.32,5.789 -7.36,5.789 -0.97,0 -2.42,-0.652 -3.77,-2.058 2.19,-2.832 3.52,-6.543 3.52,-10.418 0,-9.496 -7.89,-16.282 -15.86,-17.454 -5.35,-0.632 -13.61,-1.914 -13.61,-5.382 0,-3.457 7.05,-4.5 11.07,-4.879" /><path
             id="path114"
             style="fill:#ffffff;fill-opacity:1;fill-rule:nonzero;stroke:none"
             d="m 2366.85,165.18 c -11.58,-2.813 -16.82,-7.071 -16.82,-12.703 0,-4.122 2.7,-6.543 5.73,-6.543 2.55,0 5.46,0.886 11.09,6.14 z m 8.53,-24.793 c -4.74,0 -7.65,2.832 -8.26,7.461 -6.01,-5.657 -10.39,-7.715 -15.25,-7.715 -6.02,0 -11,4.004 -11,10.781 0,10.93 12.09,15.676 25.98,18.223 0,9.629 -1.23,13.496 -8.16,13.496 -2.8,0 -6.96,-2.039 -6.96,-6.172 0,-2.559 -1.81,-4.484 -4.18,-4.484 -2.44,0 -4.26,1.925 -4.26,4.484 0,6.172 7.72,10.262 15.51,10.262 11.84,0 16.72,-5.243 16.72,-17.457 v -19.368 c 0,-3.214 0.98,-5 2.79,-5 1.22,0 2.56,1.036 3.42,1.922 l 1.7,-2.429 c -2.32,-2.598 -5.35,-4.004 -8.05,-4.004" /><path
             id="path116"
             style="fill:#ffffff;fill-opacity:1;fill-rule:nonzero;stroke:none"
             d="m 2423.47,172.762 c -2.32,0 -4.32,2.156 -4.32,4.597 0,2.727 -1.46,4.258 -3.88,4.258 -2.82,0 -9.38,-4.765 -9.38,-15.027 v -7.074 c 0,-12.832 1.47,-15 9.61,-15 v -2.723 h -27.91 v 2.723 c 8.03,0 9.61,2.168 9.61,15 v 6.425 c 0,12.825 -1.58,14.895 -9.61,14.895 v 2.695 l 16.25,3.192 c 0.59,-1.278 1.7,-6.512 2.05,-9.239 2.44,5.149 7.93,9.239 12.8,9.239 6.73,0 9.64,-4.727 9.64,-7.957 0,-2.813 -1.07,-6.004 -4.86,-6.004" /><path
             id="path118"
             style="fill:#ffffff;fill-opacity:1;fill-rule:nonzero;stroke:none"
             d="m 2462.96,171.219 c 1.35,4.097 -0.72,10.398 -8.81,10.398 -5.21,0 -9.72,-4.133 -11.42,-10.398 z m -5.11,-26.196 c 4.02,0 9.88,2.446 13.39,5.891 l 2.21,-2.82 c -4.28,-4.739 -11.7,-8.457 -18.69,-8.457 -13.38,0 -22.56,10.64 -22.56,23.621 0,13.594 11.25,23.465 22.56,23.465 10.9,0 19.53,-9.239 16.6,-20.262 h -29.37 c -1.45,-12.051 3.3,-21.438 15.86,-21.438" /><path
             id="path120"
             style="fill:#ffffff;fill-opacity:1;fill-rule:nonzero;stroke:none"
             d="m 2476.4,180.086 v 3.055 c 7.32,1.668 9.98,7.199 10.84,15.547 h 4.14 v -14.133 h 10.63 v -4.469 h -10.63 v -25.941 c 0,-6.18 1.6,-9.375 5.51,-9.375 2.19,0 5.12,1.66 7.91,4.472 l 2.07,-2.156 c -3.42,-4.387 -8.75,-7.449 -12.79,-7.449 -6.72,0 -11.35,4.5 -11.35,14.508 v 25.941 h -6.33" /><path
             id="path122"
             style="fill:#ffffff;fill-opacity:1;fill-rule:nonzero;stroke:none"
             d="m 1785.64,69.7031 h -2.56 l -0.63,2.586 c -1.69,6.7773 -2.89,9.7578 -14.14,9.7578 h -15.93 V 27.7383 c 0,-12.8399 1.58,-15.0156 11.66,-15.0156 v -2.6875 h -33.07 v 2.6875 c 10.18,0 11.74,2.1757 11.74,15.0156 v 54.3086 h -16 c -11.23,0 -12.46,-2.9805 -14.16,-9.7578 l -0.6,-2.586 h -2.56 l 1.09,17.3242 h 74.06 l 1.1,-17.3242" /><path
             id="path124"
             style="fill:#ffffff;fill-opacity:1;fill-rule:nonzero;stroke:none"
             d="m 1798.57,50.0742 c -9.98,0 -14.79,-8.3594 -14.79,-18.6133 0,-10.2656 4.81,-18.6132 14.79,-18.6132 10.13,0 14.76,8.3476 14.76,18.6132 0,10.2539 -4.63,18.6133 -14.76,18.6133 m 0,-42.21873 c -13.56,0 -24.63,10.66403 -24.63,23.60543 0,12.9766 11.07,23.4961 24.63,23.4961 13.55,0 24.63,-10.5195 24.63,-23.4961 0,-12.9414 -11.08,-23.60543 -24.63,-23.60543" /><path
             id="path126"
             style="fill:#ffffff;fill-opacity:1;fill-rule:nonzero;stroke:none"
             d="m 1863.47,40.9648 c -2.3,0 -4.3,2.168 -4.3,4.6368 0,2.6836 -1.46,4.2187 -3.9,4.2187 -2.8,0 -9.36,-4.7461 -9.36,-15.0117 v -7.0703 c 0,-12.8399 1.47,-15.0156 9.61,-15.0156 v -2.6875 h -27.91 v 2.6875 c 8.03,0 9.61,2.1757 9.61,15.0156 v 6.4062 c 0,12.8633 -1.58,14.9063 -9.61,14.9063 v 2.6836 l 16.23,3.2226 c 0.61,-1.2773 1.7,-6.5429 2.07,-9.2304 2.44,5.0976 7.91,9.2304 12.78,9.2304 6.73,0 9.66,-4.7578 9.66,-7.9492 0,-2.832 -1.09,-6.043 -4.88,-6.043" /><path
             id="path128"
             style="fill:#ffffff;fill-opacity:1;fill-rule:nonzero;stroke:none"
             d="m 1898.96,50.0742 c -10.02,0 -14.77,-8.3594 -14.77,-18.6133 0,-10.2656 4.75,-18.6132 14.77,-18.6132 10.1,0 14.74,8.3476 14.74,18.6132 0,10.2539 -4.64,18.6133 -14.74,18.6133 m 0,-42.21873 c -13.54,0 -24.67,10.66403 -24.67,23.60543 0,12.9766 11.13,23.4961 24.67,23.4961 13.51,0 24.63,-10.5195 24.63,-23.4961 0,-12.9414 -11.12,-23.60543 -24.63,-23.60543" /><path
             id="path130"
             style="fill:#ffffff;fill-opacity:1;fill-rule:nonzero;stroke:none"
             d="m 1963.22,54.957 c 11.01,0 15.88,-8.2148 15.88,-19.1093 v -8.1094 c 0,-12.8399 1.46,-15.0156 9.66,-15.0156 v -2.6875 h -27.97 v 2.6875 c 7.91,0 9.67,2.1757 9.67,15.0156 v 7.4531 c 0,8.3281 -2.85,13.7305 -10.15,13.7305 -6.68,0 -14.05,-5.7891 -14.05,-12.8321 v -8.3515 c 0,-13.2305 0.98,-15.0156 8.58,-15.0156 v -2.6875 h -26.9 v 2.6875 c 8.11,0 9.69,2.1757 9.69,15.0156 v 6.4062 c 0,12.8633 -1.58,14.9063 -9.69,14.9063 v 2.6836 l 16.25,3.2226 c 0.61,-1.2773 1.7,-6.5429 2.07,-9.2304 3.3,4.3476 8.93,9.2304 16.96,9.2304" /><path
             id="path132"
             style="fill:#ffffff;fill-opacity:1;fill-rule:nonzero;stroke:none"
             d="m 1989.58,48.2852 v 3.0664 c 7.31,1.6914 9.98,7.1992 10.82,15.539 h 4.14 V 52.7773 h 10.65 v -4.4921 h -10.65 V 22.3477 c 0,-6.1602 1.65,-9.375 5.53,-9.375 2.21,0 5.12,1.664 7.91,4.5117 l 2.07,-2.1953 c -3.4,-4.3477 -8.75,-7.43363 -12.77,-7.43363 -6.74,0 -11.37,4.48433 -11.37,14.49223 v 25.9375 h -6.33" /><path
             id="path134"
             style="fill:#ffffff;fill-opacity:1;fill-rule:nonzero;stroke:none"
             d="m 2047.77,50.0742 c -10.02,0 -14.77,-8.3594 -14.77,-18.6133 0,-10.2656 4.75,-18.6132 14.77,-18.6132 10.1,0 14.76,8.3476 14.76,18.6132 0,10.2539 -4.66,18.6133 -14.76,18.6133 m 0,-42.21873 c -13.56,0 -24.67,10.66403 -24.67,23.60543 0,12.9766 11.11,23.4961 24.67,23.4961 13.55,0 24.63,-10.5195 24.63,-23.4961 0,-12.9414 -11.08,-23.60543 -24.63,-23.60543" /><path
             id="path136"
             style="fill:#ffffff;fill-opacity:1;fill-rule:nonzero;stroke:none"
             d="m 2150.37,65.3555 c 0,9.2422 -4.93,16.9336 -15.51,16.9336 h -10.76 v -33.875 h 10.76 c 10.58,0 15.51,7.5781 15.51,16.9414 m 1.09,-36.3282 c 7.19,-8.9726 15.35,-15.4101 22.69,-16.3046 v -2.6875 h -20.13 l -24.2,33.7617 h -5.72 V 27.7383 c 0,-12.8399 1.46,-15.0156 11.62,-15.0156 v -2.6875 h -32.95 v 2.6875 c 10.08,0 11.6,2.1757 11.6,15.0156 v 41.7109 c 0,12.8399 -1.52,14.9024 -11.6,14.9024 v 2.6757 h 32.2 c 16.98,0 26.22,-9.7461 26.22,-21.6718 0,-11.1719 -7.91,-20.0157 -21.7,-21.5586 l 11.97,-14.7696" /><path
             id="path138"
             style="fill:#ffffff;fill-opacity:1;fill-rule:nonzero;stroke:none"
             d="m 2205.5,39.4297 c 1.35,4.0898 -0.74,10.3906 -8.81,10.3906 -5.23,0 -9.72,-4.0937 -11.48,-10.3906 z m -5.17,-26.2031 c 4.06,0 9.92,2.4453 13.45,5.9179 l 2.19,-2.8476 c -4.28,-4.7305 -11.7,-8.44143 -18.69,-8.44143 -13.42,0 -22.54,10.66403 -22.54,23.60543 0,13.6133 11.21,23.4961 22.54,23.4961 10.9,0 19.53,-9.2304 16.62,-20.2812 h -29.43 c -1.45,-12.0625 3.34,-21.4492 15.86,-21.4492" /><path
             id="path140"
             style="fill:#ffffff;fill-opacity:1;fill-rule:nonzero;stroke:none"
             d="m 2251.15,10.0352 v 2.6875 c 7.69,0 8.69,1.7851 8.69,15.0156 v 7.4531 c 0,8.3281 -2.99,13.7305 -9.32,13.7305 -6.07,0 -13.2,-5.5352 -13.2,-12.8321 v -8.3515 c 0,-13.3555 0.99,-15.0156 7.73,-15.0156 v -2.6875 h -26.01 v 2.6875 c 8.2,0 9.66,2.1757 9.66,15.0156 v 40.5586 c 0,12.8515 -1.46,15.0273 -9.66,15.0273 v 2.6875 l 18.28,3.2305 V 45.7266 c 3.47,4.3476 8.94,9.2304 16.01,9.2304 11.23,0 15,-8.2148 15,-19.1093 v -8.1094 c 0,-12.8399 1.59,-15.0156 9.81,-15.0156 v -2.6875 h -26.99" /><path
             id="path142"
             style="fill:#ffffff;fill-opacity:1;fill-rule:nonzero;stroke:none"
             d="m 2308.57,33.3867 c -11.54,-2.8164 -16.84,-7.0429 -16.84,-12.707 0,-4.1133 2.72,-6.543 5.78,-6.543 2.54,0 5.47,0.8867 11.06,6.1524 z m 8.57,-24.75779 c -4.76,0 -7.71,2.81249 -8.32,7.41019 -5.95,-5.6133 -10.35,-7.6641 -15.27,-7.6641 -5.96,0 -10.94,3.9648 -10.94,10.7695 0,10.9102 12.09,15.6641 25.96,18.2344 0,9.6289 -1.21,13.4453 -8.15,13.4453 -2.79,0 -6.97,-2.0273 -6.97,-6.1328 0,-2.5781 -1.83,-4.5117 -4.14,-4.5117 -2.44,0 -4.28,1.9336 -4.28,4.5117 0,6.1328 7.68,10.2656 15.51,10.2656 11.84,0 16.72,-5.2656 16.72,-17.4492 V 18.1211 c 0,-3.2227 0.98,-5.0195 2.81,-5.0195 1.21,0 2.54,1.0351 3.4,1.9218 l 1.7,-2.4218 c -2.3,-2.5664 -5.33,-3.97269 -8.03,-3.97269" /><path
             id="path144"
             style="fill:#ffffff;fill-opacity:1;fill-rule:nonzero;stroke:none"
             d="m 2340.91,23.2461 c 2.17,-6.1484 6.68,-10.2734 12.35,-10.2734 9.45,0 13.9,8.2226 13.9,18.4882 0,10.2539 -4.45,18.3594 -13.9,18.3594 -5.67,0 -10.18,-4.0937 -12.35,-10.1367 z m -6.09,-15.39063 h -2.56 V 68.2969 c 0,12.8593 -1.58,15.0273 -9.65,15.0273 v 2.6875 l 18.3,3.2305 V 47.3789 c 3.65,4.7344 8.81,7.5781 14.88,7.5781 11.61,0 21.12,-10.5195 21.12,-23.4961 0,-12.9414 -9.51,-23.60543 -21.12,-23.60543 -6.44,0 -12.09,3.33203 -15.62,8.58593 l -5.35,-8.58593" /></g></g></g></g></svg>